<?xml version="1.0" encoding="UTF-8"?>
<!DOCTYPE svg PUBLIC "-//W3C//DTD SVG 1.1//EN" "http://www.w3.org/Graphics/SVG/1.1/DTD/svg11.dtd">
<!-- Creator: CorelDRAW 2018 (64-Bit) -->
<svg xmlns="http://www.w3.org/2000/svg" xml:space="preserve" width="49.9535mm" height="7.4115mm" version="1.1" style="shape-rendering:geometricPrecision; text-rendering:geometricPrecision; image-rendering:optimizeQuality; fill-rule:evenodd; clip-rule:evenodd"
viewBox="0 0 4995.34 741.15"
 xmlns:xlink="http://www.w3.org/1999/xlink">
 <defs>
  <style type="text/css">
   <![CDATA[
    .fil0 {fill:#2B2A29;fill-rule:nonzero}
   ]]>
  </style>
 </defs>
 <g id="Слой_x0020_1">
  <metadata id="CorelCorpID_0Corel-Layer"/>
  <path class="fil0" d="M188.11 696.6l120.51 0 0 -559.44 190.07 0 0 -100.92 -498.69 0 0 100.92 188.11 0 0 559.44zm4164.25 -674.35l26.52 0 0 718.9 -26.52 0 0 -718.9zm518.26 264.5c-0.28,1.26 -6.95,24.13 -22.77,48.37 -14.45,20.97 -29.63,41.05 -52.1,41.65 -23.08,0.21 -30.45,-13.03 -56.26,-13.03 -24.04,0 -32.19,12.43 -53.51,13.24 -22.15,0.93 -38.83,-21.61 -53.44,-42.67 -28.86,-42.22 -50.88,-117.77 -21.43,-167.77 14.95,-25.67 41.44,-42.02 70.14,-42.19 21.87,-0.7 42.36,14.48 55.2,14.48 12.29,0 36.9,-18.27 63.7,-15.56 10.42,0.4 42.18,4.5 61.63,33.65 -1.49,0.83 -37.23,21.51 -36.79,62.39 0.5,51.26 45.21,67.36 45.63,67.44zm-87.92 -191.27c12.01,-14.33 19.77,-34.6 17.67,-54.25 -17.27,0.6 -38.05,11.3 -49.64,25.94 -11.37,12.78 -19,32.9 -16.43,52.12 17.32,1.53 36.33,-9.39 48.4,-23.81zm183.86 565.45c-1.53,-0.21 -3.09,-0.47 -4.83,-0.47 -5.42,0 -9.73,2 -12.6,6.42 -2.6,3.53 -4.05,8.16 -4.05,13.9l0 37.16 -15.87 0 0 -48.63c0,-8 -0.05,-15.43 -0.47,-22.2l13.6 0 0.74 13.44 0.28 0c1.64,-4.51 4.34,-8.38 7.89,-11.1 3.53,-2.42 7.29,-3.74 11.25,-3.74 1.78,0 2.95,0.08 4.06,0.3l0 14.92zm-52.13 18.28c0,2.72 -0.12,5.06 -0.46,6.93l-46.47 0c0.21,7.01 2.51,12.63 6.82,16.11 3.85,3.36 9.23,4.98 15.5,4.98 7.06,0 13.52,-1.03 19.06,-3.28l1.92 11.06c-6.02,2.85 -13.92,4.33 -23,4.33 -11.03,0 -19.77,-3.23 -25.98,-9.69 -6.31,-6.55 -9.26,-15.13 -9.26,-26.06 0,-10.71 2.82,-19.64 8.56,-26.7 6.08,-7.65 14.39,-11.44 24.79,-11.44 10.2,0 17.91,3.79 23.31,11.44 3.03,6.08 5.21,13.43 5.21,22.32zm-14.01 -4.17c0.07,-4.72 -1.04,-8.54 -3.08,-12.07 -2.74,-4.21 -6.84,-6.42 -12.56,-6.42 -5.06,0 -9.44,2.21 -12.61,6.29 -2.63,3.41 -4.23,7.48 -4.67,12.2l32.92 0zm-63.15 -60.41l0 103.31 -16.53 0 0 -103.31 16.53 0zm-33.21 0l0 103.31 -15.87 0 0 -103.31 15.87 0zm-30.33 64.58c0,2.72 -0.32,5.06 -0.55,6.93l-45.66 0c0.15,7.01 2.59,12.63 6.87,16.11 2.8,3.36 7.29,4.98 13.62,4.98 7.14,0 13.63,-1.03 19.24,-3.28l2.45 11.06c-6.66,2.85 -14.55,4.33 -23.75,4.33 -9.61,0 -17.77,-3.23 -24,-9.69 -6.31,-6.55 -9.4,-15.13 -9.4,-26.06 0,-10.71 2.85,-19.64 8.68,-26.7 6.16,-7.65 14.49,-11.44 22.99,-11.44 10.15,0 18.02,3.79 23.2,11.44 4.23,6.08 6.31,13.43 6.31,22.32zm-15.01 -4.17c0,-4.72 -1.06,-8.54 -3.2,-12.07 -2.83,-4.21 -6.78,-6.42 -12.57,-6.42 -5.01,0 -7.35,2.21 -10.75,6.29 -2.53,3.41 -4.13,7.48 -4.68,12.2l31.2 0zm-56.92 22.62c0,6.42 -2.49,11.65 -7.18,15.73 -4.9,3.96 -11.65,5.95 -20.09,5.95 -8.15,0 -14.92,-1.57 -20.58,-4.8l3.36 -11.69c5.42,3.19 11.26,4.68 17.51,4.68 7.89,0 12.12,-2.86 12.12,-8.64 0,-2.59 -1,-5.01 -2.72,-6.71 -1.79,-1.62 -4.93,-3.19 -9.4,-4.85 -12.56,-4.76 -18.96,-11.31 -18.96,-20.32 0,-6.04 2.38,-11.09 6.87,-15.31 4.72,-3.91 10.94,-5.99 18.64,-5.99 6.97,0 12.91,1.4 17.84,4.21l-3.37 11.14c-4.54,-2.55 -9.31,-3.92 -14.4,-3.92 -3.3,0 -6,0.81 -7.77,2.34 -1.76,1.58 -2.76,3.58 -2.76,5.96 0,2.38 1.13,4.46 2.94,5.95 1.59,1.49 4.97,3.14 9.52,4.85 12.47,4.63 18.43,11.65 18.43,21.42zm-56.88 -18.45c0,2.72 -0.33,5.06 -0.73,6.93l-47.29 0c0.15,7.01 2.42,12.63 6.86,16.11 4.02,3.36 9,4.98 15.37,4.98 7.18,0 13.48,-1.03 19.28,-3.28l2.34 11.06c-6.59,2.85 -14.44,4.33 -23.74,4.33 -10.96,0 -19.54,-3.23 -25.83,-9.69 -6.25,-6.55 -9.34,-15.13 -9.34,-26.06 0,-10.71 2.83,-19.64 8.74,-26.7 6.08,-7.65 14.41,-11.44 24.72,-11.44 10.17,0 17.9,3.79 23.28,11.44 3.95,6.08 6.34,13.43 6.34,22.32zm-15.16 -4.17c0.15,-4.72 -0.94,-8.54 -3.21,-12.07 -2.64,-4.21 -6.93,-6.42 -12.58,-6.42 -4.96,0 -9.32,2.21 -12.36,6.29 -2.69,3.41 -4.27,7.48 -4.71,12.2l32.86 0zm-52.98 42.9l-16.79 0c-1.45,-2.85 -3.63,-10.71 -6.33,-23.34 -1.28,-6.63 -3.38,-11.35 -6.17,-13.86 -2.69,-2.8 -6.78,-4.17 -12,-4.17l-9.59 0 0 41.37 -15.96 0 0 -96.89c7.24,-1.31 15.68,-1.91 25.55,-1.91 13.34,0 23.17,2.46 29.33,7.73 5.93,4.64 8.67,11.1 8.67,19.31 0,5.9 -1.87,11.48 -6.04,15.98 -3.16,4 -7.46,6.84 -12.62,8.72l0 0.43c6.76,2.41 11.39,9.05 14.2,19.51 2.23,8.16 3.47,13.85 4.46,16.79 1.23,5.4 2.42,8.63 3.29,10.33zm-19.65 -70.36c0,-11.27 -6.77,-16.79 -19.99,-16.87 -5,0 -8.76,0.38 -11.24,1.06l0 33.33 10.94 0c6.21,0 11.04,-1.7 14.69,-4.9 3.74,-3.14 5.6,-7.26 5.6,-12.62zm438.2 -82.35l-15.3 0 0 -39.54c0,-13.26 -4.4,-19.68 -13.47,-19.68 -4.24,0 -7.59,1.57 -10.17,4.85 -2.61,3.14 -3.97,7.05 -3.97,11.22l0 43.15 -15.18 0 0 -41.79c0,-5.27 -1.23,-9.48 -3.47,-12.71 -2.12,-3.15 -5.46,-4.72 -9.65,-4.72 -4.25,0 -7.71,1.65 -10.45,5.18 -2.73,3.45 -3.6,7.4 -3.6,11.87l0 42.17 -14.98 0 0 -50.42c0,-6.21 -0.11,-13.01 -0.49,-20.24l13.43 0 0.79 10.46 0.49 0c3.85,-7.95 11.1,-11.95 20.47,-11.95 9.61,0 16.22,4.39 19.58,13.23l0.19 0c2.27,-3.79 5.05,-6.72 8.31,-9.02 4.21,-2.72 8.99,-4.21 14.48,-4.21 6.18,0 11.39,2.21 15.43,6.51 5.02,5.14 7.56,13.13 7.56,23.68l0 41.96zm-116.53 0l-13.98 0 -0.85 -10.67 -0.22 0c-5.03,8.38 -12.54,12.37 -22.52,12.37 -7.04,0 -13.15,-2.12 -17.27,-6.59 -4.85,-5.23 -7.44,-13.3 -7.44,-24.06l0 -41.71 16.43 0 0 38.91c0,13.64 4.7,20.27 13.99,20.27 6.97,0 11.78,-3.36 14.54,-10.08 0.68,-1.73 0.96,-3.73 0.96,-5.94l0 -43.16 15.73 0 0 50.47c0,6.54 0.36,13.34 0.63,20.19zm-77.07 -92.08c0,2.8 -0.98,4.97 -2.76,6.67 -1.88,1.79 -4.32,2.81 -7.23,2.81 -2.55,0 -4.83,-1.11 -6.53,-2.81 -1.79,-1.83 -2.66,-4.04 -2.66,-6.67 0,-2.69 0.87,-4.77 2.73,-6.76 1.93,-1.66 3.97,-2.6 6.84,-2.6 2.7,0 4.97,0.94 6.85,2.6 1.78,1.99 2.76,4.07 2.76,6.76zm-1.83 92.08l-15.73 0 0 -70.66 15.73 0 0 70.66zm-35.13 0l-15.4 0 0 -39.54c0,-13.26 -4.4,-19.68 -12.58,-19.68 -3.21,0 -6.63,1.57 -9.27,4.85 -2.45,3.14 -3.81,7.05 -3.81,11.22l0 43.15 -15.17 0 0 -41.79c0,-5.27 -1.24,-9.48 -3.46,-12.71 -2.03,-3.15 -5.34,-4.72 -9.64,-4.72 -4.22,0 -7.88,1.65 -10.48,5.18 -2.78,3.45 -4.25,7.4 -4.25,11.87l0 42.17 -15.17 0 0 -50.42c0,-6.21 -0.32,-13.01 -0.47,-20.24l13.2 0 0.93 10.46 0.38 0c4.89,-7.95 11.93,-11.95 21.47,-11.95 9.55,0 16.2,4.39 19.54,13.23l0.17 0c2.28,-3.79 5,-6.72 8.46,-9.02 3.95,-2.72 7.76,-4.21 12.46,-4.21 6.27,0 11.5,2.21 15.58,6.51 4.99,5.14 7.51,13.13 7.51,23.68l0 41.96zm-117.39 -61.05c-5.38,-7.44 -13.05,-11.31 -23.21,-11.31 -10.35,0 -18.66,3.87 -24.74,11.35 -5.87,7.15 -8.76,16.03 -8.76,26.66 0,10.97 3.08,19.51 9.37,26.1 6.36,6.51 14.94,9.65 25.89,9.65 9.08,0 17.07,-1.44 23.59,-4.25l-2.28 -11.01c-5.83,2.26 -12.17,3.27 -19.18,3.27 -6.4,0 -11.56,-1.65 -15.43,-4.93 -4.47,-3.57 -6.77,-9.01 -7,-16.03l47.34 0c0.47,-1.86 0.64,-4.29 0.64,-7.13 0,-8.9 -2.21,-16.25 -6.23,-22.37zm-41.75 18.24c0.45,-4.77 2.15,-9.02 4.66,-12.2 3.23,-4.21 7.35,-6.5 12.6,-6.5 5.72,0 9.72,2.33 12.59,6.62 2.08,3.37 3.25,7.44 3.1,12.08l-32.95 0zm-21.41 -14.03c-1.54,-0.38 -2.74,-0.42 -3.99,-0.42 -5.53,0 -9.78,2.08 -13.2,6.29 -2.59,3.52 -4.02,8.24 -4.02,13.9l0 37.07 -15.79 0 0 -48.51c0,-8.03 -0.2,-15.47 -0.54,-22.15l13.74 0 0.55 13.44 0.57 0c1.47,-4.51 4.15,-8.34 8.02,-11.06 3.72,-2.59 7.46,-3.87 11.54,-3.87 0.74,0 1.93,0.09 3.12,0.39l0 14.92zm-47.82 -12.76c0,9.06 -2.55,16.33 -7.97,21.64 -6.72,7.15 -16.73,10.68 -29.98,10.68 -3.84,0 -6.71,-0.26 -8.88,-0.56l0 37.84 -14.16 0 0 -96.72c5.57,-1.58 14.26,-2.17 23.89,-2.17 12.48,0 21.75,2.64 28.02,7.99 6.17,5.24 9.08,12.46 9.08,21.3zm-15.46 0.98c0,-5.91 -1.95,-10.28 -5.57,-13.43 -3.59,-3.15 -8.64,-4.6 -15.38,-4.6 -4.26,0 -7.76,0.22 -10.42,0.86l0 35.37c2.23,0.55 5.16,0.85 9.01,0.85 6.96,0 12.37,-1.7 16.33,-5.06 3.97,-3.4 6.03,-8.08 6.03,-13.99zm-3959.55 199.99l120.51 0 0 -286.09c0,-6.37 0.33,-12.74 0.98,-18.94 0.66,-6.05 1.96,-11.92 3.92,-17.31 4.58,-12.25 11.27,-23.52 20.09,-33.64 8.65,-10.12 19.27,-18.29 31.68,-24.49 12.57,-6.21 26.61,-9.31 42.29,-9.47 22.04,0.16 40,5.55 53.56,16.16 13.55,10.62 23.35,25.15 29.56,43.28 6.04,18.28 9.14,38.86 8.97,62.05l0 268.45 120.51 0 0 -281.19c-0.16,-38.05 -5.06,-70.38 -14.53,-96.83 -9.47,-26.46 -22.2,-47.69 -38.21,-63.85 -16,-16.17 -33.8,-27.92 -53.4,-35.27 -19.75,-7.35 -39.84,-10.94 -60.41,-10.78 -15.19,0 -29.88,1.96 -43.77,5.55 -14.04,3.76 -27.26,9.15 -39.51,16 -12.25,6.37 -23.52,14.21 -33.64,23.19 -9.96,9.15 -18.78,19.43 -26.13,30.7l-1.96 0 0 -284.13 -120.51 0 0 696.61zm965.06 -204.77c0.98,-5.39 1.96,-12.41 2.77,-21.06 0.66,-8.66 1.14,-18.62 1.14,-29.89 0,-21.23 -2.12,-42.62 -6.53,-64.33 -4.41,-21.89 -11.59,-42.79 -21.22,-62.71 -9.8,-19.92 -22.7,-37.88 -38.7,-53.56 -16.01,-15.84 -35.44,-28.41 -58.46,-37.56 -23.03,-9.14 -49.97,-13.88 -80.83,-14.04 -30.54,0.16 -58.3,4.73 -82.95,14.04 -24.66,9.15 -46.38,21.88 -65.16,38.21 -18.78,16.33 -34.45,35.28 -47.02,56.99 -12.58,21.56 -22.05,44.91 -28.42,69.89 -6.37,25.15 -9.63,50.95 -9.63,77.57 0.16,48.98 9.96,91.44 29.39,127.37 19.43,35.92 47.35,63.84 83.93,83.6 36.58,19.76 80.83,29.72 132.6,30.04 34.45,-0.16 65.64,-3.1 93.56,-8.65 28.09,-5.55 52.42,-12.74 72.99,-21.72l-17.63 -82.3c-12.25,4.25 -25.15,8 -38.38,11.27 -13.39,3.26 -27.59,5.71 -43.11,7.51 -15.35,1.8 -32.16,2.78 -50.78,2.78 -19.43,0 -37.88,-2.29 -55.19,-7.19 -17.31,-4.74 -32.66,-12.25 -46.21,-22.21 -13.56,-9.95 -24.17,-22.85 -32.17,-38.37 -8,-15.67 -12.58,-34.13 -13.39,-55.68l319.4 0zm-319.4 -84.26c1.14,-12.41 4.08,-25.47 8.82,-38.86 4.9,-13.56 11.59,-26.13 20.41,-37.89 8.82,-11.59 20.08,-21.22 33.47,-28.57 13.39,-7.35 29.4,-11.11 48.01,-11.27 19.92,0.16 36.41,4.25 49.48,11.92 13.06,7.84 23.19,17.8 30.53,29.88 7.35,12.09 12.41,24.66 15.19,37.89 2.94,13.39 4.08,25.63 3.75,36.9l-209.66 0zm743.63 289.03l0 -477.14 -120.51 0 0 477.14 120.51 0zm-59.77 -676.03c-13.55,0.16 -25.31,3.1 -35.43,8.65 -9.96,5.72 -17.96,13.55 -23.51,23.35 -5.72,9.96 -8.49,21.07 -8.66,33.64 0.17,11.92 2.94,22.7 8.33,32.5 5.55,9.63 13.23,17.47 23.19,23.18 9.96,5.88 21.71,8.82 35.1,8.98 14.05,-0.16 26.3,-3.1 36.58,-8.98 10.12,-5.71 17.97,-13.55 23.52,-23.18 5.55,-9.8 8.49,-20.58 8.49,-32.5 -0.33,-12.57 -3.27,-23.68 -8.82,-33.64 -5.55,-9.8 -13.23,-17.63 -23.19,-23.35 -9.96,-5.55 -21.88,-8.49 -35.6,-8.65zm165.58 644.67c12.41,7.68 27.92,14.54 46.86,20.9 18.95,6.37 39.85,11.44 62.71,15.35 22.7,3.76 46.05,5.72 69.73,5.88 42.29,-0.16 79.19,-5.55 110.54,-16 31.36,-10.61 57.32,-24.98 77.89,-43.43 20.74,-18.29 36.09,-39.52 46.22,-63.36 10.12,-23.84 15.18,-49.15 15.18,-76.09 0,-31.52 -6.04,-59.44 -18.45,-83.45 -12.41,-24.17 -31.02,-45.39 -56.17,-63.68 -24.99,-18.29 -56.66,-34.62 -94.87,-48.83 -29.23,-11.26 -53.24,-21.88 -72.02,-32.16 -18.61,-10.13 -32.33,-21.4 -41.15,-33.32 -8.98,-12.08 -13.22,-26.61 -13.22,-43.27 0,-13.39 3.59,-25.96 11.26,-38.04 7.52,-11.92 19.27,-21.89 35.27,-29.4 16.17,-7.67 36.75,-11.76 62.22,-11.92 20.57,0.16 39.35,1.96 56.33,5.23 16.82,3.43 31.68,7.51 44.42,12.24 12.9,4.9 23.35,9.48 31.52,13.88l28.41 -96.01c-17.15,-9.64 -38.7,-17.64 -64.83,-24.17 -26.29,-6.53 -57.15,-9.8 -92.91,-10.12 -36.09,0.16 -68.58,4.9 -97.32,14.37 -28.74,9.47 -53.4,22.69 -73.81,39.84 -20.25,17.15 -35.92,37.23 -46.7,60.25 -10.78,23.03 -16.17,48.34 -16.33,75.61 0.16,31.51 7.51,59.28 22.04,83.28 14.54,24 35.28,44.9 62.05,62.7 26.62,17.8 58.46,33.15 95.2,46.05 27.6,9.96 50.13,20.25 67.28,30.86 17.14,10.62 29.72,22.21 37.56,34.95 8,12.74 11.92,27.43 11.75,43.92 0,18.13 -4.73,33.8 -14.04,47.36 -9.14,13.39 -22.7,23.84 -40.5,31.35 -17.8,7.51 -39.51,11.26 -64.99,11.43 -20.73,-0.17 -40.82,-2.13 -60.41,-5.88 -19.44,-3.92 -37.72,-8.98 -54.54,-15.35 -16.99,-6.37 -31.84,-13.23 -44.74,-20.9l-27.44 99.93zm548.66 -534.94l0 89.16 -67.6 0 0 90.14 67.6 0 0 224.36c0,31.35 2.94,58.13 9.14,80.34 6.21,22.2 15.85,40.17 29.07,53.88 11.43,12.41 25.8,21.88 43.44,28.74 17.63,6.86 37.72,10.29 60.41,10.45 18.78,-0.16 35.77,-1.3 50.95,-3.75 15.19,-2.45 27.27,-5.39 36.25,-8.99l-1.96 -91.11c-6.69,1.96 -13.55,3.26 -20.57,3.92 -7.19,0.65 -16,0.98 -26.46,0.98 -15.18,0 -27.43,-3.27 -36.41,-9.8 -9.14,-6.53 -15.67,-16.33 -19.59,-29.39 -3.92,-13.06 -5.88,-29.39 -5.72,-48.99l0 -210.64 114.63 0 0 -90.14 -114.63 0 0 -122.47 -118.55 33.31zm534.94 78.38c-36.08,0.16 -69.23,5.88 -99.28,17.47 -30.04,11.6 -56.17,28.25 -78.21,50.13 -22.05,21.88 -39.03,48.34 -51.12,79.53 -12.08,31.18 -18.12,66.3 -18.28,105.65 0.16,38.53 6.36,72.99 18.45,103.36 12.08,30.37 29.06,56.01 50.78,77.24 21.72,21.22 47.03,37.39 75.77,48.49 28.9,11.11 60.25,16.66 94.06,16.82 24.49,0 48.49,-3.1 72.17,-9.63 23.51,-6.37 45.72,-16 66.46,-29.23 20.9,-13.07 39.19,-29.72 55.03,-49.81 16,-20.08 28.41,-43.92 37.39,-71.35 9.15,-27.43 13.72,-58.63 13.88,-93.73 -0.16,-36.41 -5.88,-69.56 -16.98,-99.45 -11.27,-29.88 -27.43,-55.68 -48.33,-77.4 -20.9,-21.71 -45.73,-38.37 -74.79,-50.29 -29.07,-11.76 -61.4,-17.64 -97,-17.8zm-2.93 87.2c20.57,0.16 38.2,5.06 52.74,14.53 14.69,9.64 26.61,22.21 35.92,37.89 9.31,15.67 16.17,32.98 20.41,51.76 4.41,18.78 6.53,37.56 6.53,56.5 -0.16,32.49 -5.06,61.07 -15.02,85.56 -9.8,24.5 -23.35,43.44 -40.82,57.15 -17.47,13.72 -37.72,20.74 -60.75,20.9 -18.12,-0.16 -34.61,-4.24 -49.15,-12.24 -14.53,-8.17 -26.94,-19.43 -37.39,-33.96 -10.29,-14.7 -18.12,-31.68 -23.68,-51.28 -5.55,-19.59 -8.33,-40.99 -8.33,-64.17 0,-20.09 2.13,-39.68 6.7,-58.95 4.57,-19.11 11.59,-36.58 21.06,-52.09 9.64,-15.68 22.05,-28.09 37.07,-37.4 15.19,-9.3 33.47,-14.04 54.71,-14.2zm338.98 400.72l120.52 0 0 -247.88c0,-6.37 0.16,-12.74 0.65,-18.94 0.49,-6.04 1.3,-11.92 2.28,-17.31 3.6,-18.45 10.29,-34.45 20.09,-48.01 9.8,-13.55 22.04,-24.17 36.9,-31.68 14.86,-7.51 31.68,-11.27 50.79,-11.43 7.18,0 13.72,0.16 19.59,0.66 5.72,0.49 11.27,1.3 16.66,2.28l0 -112.67c-4.74,-0.98 -9.31,-1.8 -13.56,-2.29 -4.24,-0.49 -9.14,-0.65 -14.85,-0.65 -17.48,0 -34.79,3.76 -51.93,11.43 -16.98,7.51 -32.5,18.78 -46.38,33.64 -13.88,15.02 -24.98,33.64 -32.98,55.85l-2.94 0 -4.9 -90.14 -103.85 0c1.47,20.74 2.45,43.6 3.1,68.42 0.49,24.82 0.81,53.39 0.81,85.4l0 323.32zm744.61 -204.77c0.98,-5.39 1.96,-12.41 2.78,-21.06 0.65,-8.66 1.14,-18.62 1.14,-29.89 0,-21.23 -2.12,-42.62 -6.53,-64.33 -4.41,-21.89 -11.59,-42.79 -21.23,-62.71 -9.8,-19.92 -22.69,-37.88 -38.7,-53.56 -16,-15.84 -35.43,-28.41 -58.46,-37.56 -23.02,-9.14 -49.96,-13.88 -80.82,-14.04 -30.54,0.16 -58.3,4.73 -82.95,14.04 -24.66,9.15 -46.38,21.88 -65.16,38.21 -18.78,16.33 -34.45,35.28 -47.02,56.99 -12.58,21.56 -22.05,44.91 -28.42,69.89 -6.37,25.15 -9.63,50.95 -9.63,77.57 0.16,48.98 9.96,91.44 29.39,127.37 19.43,35.92 47.35,63.84 83.93,83.6 36.58,19.76 80.83,29.72 132.59,30.04 34.46,-0.16 65.65,-3.1 93.57,-8.65 28.08,-5.55 52.41,-12.74 72.99,-21.72l-17.64 -82.3c-12.24,4.25 -25.14,8 -38.37,11.27 -13.39,3.26 -27.59,5.71 -43.11,7.51 -15.35,1.8 -32.17,2.78 -50.78,2.78 -19.43,0 -37.89,-2.29 -55.19,-7.19 -17.31,-4.74 -32.66,-12.25 -46.21,-22.21 -13.56,-9.95 -24.17,-22.85 -32.17,-38.37 -8,-15.67 -12.57,-34.13 -13.39,-55.68l319.39 0zm-319.39 -84.26c1.14,-12.41 4.08,-25.47 8.82,-38.86 4.9,-13.56 11.59,-26.13 20.41,-37.89 8.81,-11.59 20.08,-21.22 33.47,-28.57 13.39,-7.35 29.39,-11.11 48.01,-11.27 19.92,0.16 36.41,4.25 49.47,11.92 13.07,7.84 23.19,17.8 30.54,29.88 7.35,12.09 12.41,24.66 15.19,37.89 2.93,13.39 4.08,25.63 3.75,36.9l-209.66 0z"/>
 </g>
</svg>
